<?xml version="1.0" encoding="UTF-8"?>
<svg xmlns="http://www.w3.org/2000/svg" xmlns:xlink="http://www.w3.org/1999/xlink" width="504pt" height="360pt" viewBox="0 0 504 360" version="1.1">
<defs>
<g>
<symbol overflow="visible" id="glyph0-0">
<path style="stroke:none;" d="M 1.25 0 L 1.25 -6.25 L 6.25 -6.25 L 6.25 0 Z M 1.40625 -0.15625 L 6.09375 -0.15625 L 6.09375 -6.09375 L 1.40625 -6.09375 Z M 1.40625 -0.15625 "/>
</symbol>
<symbol overflow="visible" id="glyph0-1">
<path style="stroke:none;" d="M -0.015625 0 L 2.734375 -7.15625 L 3.753906 -7.15625 L 6.683594 0 L 5.605469 0 L 4.769531 -2.167969 L 1.777344 -2.167969 L 0.992188 0 Z M 2.050781 -2.9375 L 4.476563 -2.9375 L 3.730469 -4.921875 C 3.5 -5.523438 3.332031 -6.015625 3.222656 -6.40625 C 3.128906 -5.945313 3 -5.492188 2.835938 -5.039063 Z M 2.050781 -2.9375 "/>
</symbol>
<symbol overflow="visible" id="glyph0-2">
<path style="stroke:none;" d="M 4.042969 -1.898438 L 4.90625 -1.789063 C 4.808594 -1.1875 4.566406 -0.722656 4.179688 -0.386719 C 3.789063 -0.0507813 3.3125 0.117188 2.75 0.117188 C 2.035156 0.117188 1.464844 -0.113281 1.035156 -0.578125 C 0.601563 -1.039063 0.386719 -1.703125 0.390625 -2.574219 C 0.386719 -3.128906 0.480469 -3.621094 0.667969 -4.042969 C 0.851563 -4.460938 1.132813 -4.773438 1.515625 -4.988281 C 1.894531 -5.195313 2.308594 -5.300781 2.753906 -5.304688 C 3.316406 -5.300781 3.773438 -5.160156 4.132813 -4.875 C 4.488281 -4.589844 4.71875 -4.183594 4.824219 -3.664063 L 3.96875 -3.53125 C 3.882813 -3.878906 3.738281 -4.140625 3.535156 -4.316406 C 3.324219 -4.488281 3.078125 -4.574219 2.789063 -4.578125 C 2.34375 -4.574219 1.980469 -4.417969 1.707031 -4.101563 C 1.425781 -3.785156 1.289063 -3.28125 1.292969 -2.597656 C 1.289063 -1.898438 1.421875 -1.394531 1.691406 -1.078125 C 1.957031 -0.761719 2.304688 -0.601563 2.738281 -0.605469 C 3.082031 -0.601563 3.371094 -0.707031 3.601563 -0.921875 C 3.832031 -1.132813 3.980469 -1.460938 4.042969 -1.898438 Z M 4.042969 -1.898438 "/>
</symbol>
<symbol overflow="visible" id="glyph0-3">
<path style="stroke:none;" d="M 0.648438 0 L 0.648438 -5.1875 L 1.441406 -5.1875 L 1.441406 -4.398438 C 1.640625 -4.765625 1.824219 -5.007813 2 -5.128906 C 2.167969 -5.242188 2.355469 -5.300781 2.5625 -5.304688 C 2.855469 -5.300781 3.160156 -5.207031 3.46875 -5.019531 L 3.164063 -4.203125 C 2.949219 -4.328125 2.734375 -4.394531 2.519531 -4.394531 C 2.324219 -4.394531 2.148438 -4.335938 2 -4.21875 C 1.84375 -4.101563 1.738281 -3.941406 1.675781 -3.742188 C 1.574219 -3.425781 1.523438 -3.082031 1.527344 -2.714844 L 1.527344 0 Z M 0.648438 0 "/>
</symbol>
<symbol overflow="visible" id="glyph0-4">
<path style="stroke:none;" d="M 4.058594 0 L 4.058594 -0.761719 C 3.652344 -0.175781 3.105469 0.117188 2.414063 0.117188 C 2.105469 0.117188 1.816406 0.0585938 1.554688 -0.0585938 C 1.285156 -0.175781 1.089844 -0.320313 0.964844 -0.5 C 0.835938 -0.671875 0.746094 -0.890625 0.695313 -1.152344 C 0.65625 -1.320313 0.636719 -1.59375 0.640625 -1.972656 L 0.640625 -5.1875 L 1.519531 -5.1875 L 1.519531 -2.308594 C 1.515625 -1.847656 1.535156 -1.539063 1.570313 -1.382813 C 1.625 -1.148438 1.742188 -0.964844 1.921875 -0.835938 C 2.101563 -0.703125 2.320313 -0.636719 2.585938 -0.640625 C 2.847656 -0.636719 3.097656 -0.707031 3.328125 -0.84375 C 3.558594 -0.976563 3.722656 -1.160156 3.820313 -1.394531 C 3.914063 -1.625 3.960938 -1.960938 3.964844 -2.40625 L 3.964844 -5.1875 L 4.84375 -5.1875 L 4.84375 0 Z M 4.058594 0 "/>
</symbol>
<symbol overflow="visible" id="glyph0-5">
<path style="stroke:none;" d="M 4.042969 -0.640625 C 3.714844 -0.359375 3.398438 -0.164063 3.101563 -0.0546875 C 2.796875 0.0625 2.476563 0.117188 2.132813 0.117188 C 1.5625 0.117188 1.125 -0.0195313 0.820313 -0.300781 C 0.511719 -0.574219 0.355469 -0.929688 0.359375 -1.367188 C 0.355469 -1.617188 0.414063 -1.851563 0.53125 -2.0625 C 0.644531 -2.273438 0.796875 -2.441406 0.988281 -2.566406 C 1.171875 -2.691406 1.382813 -2.785156 1.621094 -2.855469 C 1.789063 -2.898438 2.050781 -2.945313 2.402344 -2.988281 C 3.113281 -3.074219 3.632813 -3.171875 3.96875 -3.289063 C 3.96875 -3.40625 3.972656 -3.484375 3.976563 -3.519531 C 3.972656 -3.875 3.890625 -4.128906 3.726563 -4.277344 C 3.5 -4.472656 3.164063 -4.570313 2.726563 -4.574219 C 2.308594 -4.570313 2.003906 -4.496094 1.808594 -4.355469 C 1.609375 -4.207031 1.464844 -3.953125 1.371094 -3.589844 L 0.511719 -3.707031 C 0.585938 -4.070313 0.714844 -4.367188 0.898438 -4.597656 C 1.074219 -4.820313 1.335938 -4.996094 1.675781 -5.121094 C 2.011719 -5.242188 2.402344 -5.300781 2.851563 -5.304688 C 3.292969 -5.300781 3.652344 -5.25 3.929688 -5.148438 C 4.203125 -5.042969 4.40625 -4.910156 4.539063 -4.753906 C 4.667969 -4.589844 4.757813 -4.390625 4.8125 -4.15625 C 4.839844 -4 4.855469 -3.730469 4.859375 -3.34375 L 4.859375 -2.171875 C 4.855469 -1.351563 4.875 -0.835938 4.914063 -0.621094 C 4.949219 -0.402344 5.023438 -0.195313 5.136719 0 L 4.21875 0 C 4.125 -0.179688 4.066406 -0.390625 4.042969 -0.640625 Z M 3.96875 -2.601563 C 3.648438 -2.46875 3.171875 -2.355469 2.535156 -2.269531 C 2.171875 -2.214844 1.914063 -2.15625 1.765625 -2.09375 C 1.613281 -2.023438 1.5 -1.929688 1.417969 -1.808594 C 1.335938 -1.679688 1.292969 -1.539063 1.296875 -1.390625 C 1.292969 -1.152344 1.382813 -0.957031 1.5625 -0.804688 C 1.738281 -0.644531 2 -0.566406 2.34375 -0.570313 C 2.679688 -0.566406 2.980469 -0.640625 3.246094 -0.792969 C 3.507813 -0.9375 3.699219 -1.140625 3.828125 -1.402344 C 3.917969 -1.597656 3.964844 -1.890625 3.96875 -2.28125 Z M 3.96875 -2.601563 "/>
</symbol>
<symbol overflow="visible" id="glyph0-6">
<path style="stroke:none;" d="M 0.640625 0 L 0.640625 -7.15625 L 1.519531 -7.15625 L 1.519531 0 Z M 0.640625 0 "/>
</symbol>
<symbol overflow="visible" id="glyph0-7">
<path style="stroke:none;" d=""/>
</symbol>
<symbol overflow="visible" id="glyph0-8">
<path style="stroke:none;" d="M 2.59375 0 L 2.59375 -6.3125 L 0.234375 -6.3125 L 0.234375 -7.15625 L 5.90625 -7.15625 L 5.90625 -6.3125 L 3.539063 -6.3125 L 3.539063 0 Z M 2.59375 0 "/>
</symbol>
<symbol overflow="visible" id="glyph0-9">
<path style="stroke:none;" d="M 0.664063 -6.148438 L 0.664063 -7.15625 L 1.542969 -7.15625 L 1.542969 -6.148438 Z M 0.664063 0 L 0.664063 -5.1875 L 1.542969 -5.1875 L 1.542969 0 Z M 0.664063 0 "/>
</symbol>
<symbol overflow="visible" id="glyph0-10">
<path style="stroke:none;" d="M 0.660156 0 L 0.660156 -5.1875 L 1.445313 -5.1875 L 1.445313 -4.457031 C 1.605469 -4.710938 1.820313 -4.914063 2.09375 -5.070313 C 2.359375 -5.222656 2.667969 -5.300781 3.015625 -5.304688 C 3.398438 -5.300781 3.714844 -5.222656 3.960938 -5.0625 C 4.207031 -4.902344 4.378906 -4.679688 4.484375 -4.394531 C 4.890625 -5 5.425781 -5.300781 6.085938 -5.304688 C 6.597656 -5.300781 6.992188 -5.160156 7.269531 -4.875 C 7.546875 -4.589844 7.6875 -4.148438 7.6875 -3.558594 L 7.6875 0 L 6.8125 0 L 6.8125 -3.265625 C 6.808594 -3.613281 6.78125 -3.867188 6.726563 -4.023438 C 6.667969 -4.175781 6.5625 -4.300781 6.414063 -4.398438 C 6.261719 -4.488281 6.085938 -4.535156 5.890625 -4.539063 C 5.523438 -4.535156 5.222656 -4.414063 4.980469 -4.175781 C 4.738281 -3.929688 4.617188 -3.542969 4.617188 -3.011719 L 4.617188 0 L 3.742188 0 L 3.742188 -3.367188 C 3.738281 -3.753906 3.667969 -4.046875 3.527344 -4.246094 C 3.382813 -4.4375 3.144531 -4.535156 2.820313 -4.539063 C 2.570313 -4.535156 2.34375 -4.46875 2.136719 -4.34375 C 1.921875 -4.210938 1.769531 -4.023438 1.679688 -3.773438 C 1.582031 -3.523438 1.535156 -3.160156 1.539063 -2.691406 L 1.539063 0 Z M 0.660156 0 "/>
</symbol>
<symbol overflow="visible" id="glyph0-11">
<path style="stroke:none;" d="M 4.210938 -1.671875 L 5.117188 -1.558594 C 4.96875 -1.027344 4.703125 -0.613281 4.320313 -0.320313 C 3.929688 -0.0273438 3.4375 0.117188 2.835938 0.117188 C 2.078125 0.117188 1.476563 -0.113281 1.03125 -0.582031 C 0.585938 -1.046875 0.363281 -1.703125 0.367188 -2.546875 C 0.363281 -3.417969 0.585938 -4.097656 1.039063 -4.582031 C 1.484375 -5.0625 2.070313 -5.300781 2.789063 -5.304688 C 3.480469 -5.300781 4.046875 -5.066406 4.488281 -4.59375 C 4.925781 -4.121094 5.144531 -3.457031 5.148438 -2.601563 C 5.144531 -2.546875 5.140625 -2.46875 5.140625 -2.367188 L 1.273438 -2.367188 C 1.304688 -1.796875 1.46875 -1.359375 1.757813 -1.058594 C 2.046875 -0.753906 2.40625 -0.601563 2.84375 -0.605469 C 3.160156 -0.601563 3.433594 -0.6875 3.664063 -0.859375 C 3.890625 -1.027344 4.074219 -1.296875 4.210938 -1.671875 Z M 1.324219 -3.089844 L 4.21875 -3.089844 C 4.179688 -3.523438 4.066406 -3.851563 3.886719 -4.070313 C 3.605469 -4.40625 3.242188 -4.574219 2.796875 -4.578125 C 2.390625 -4.574219 2.050781 -4.441406 1.777344 -4.171875 C 1.5 -3.902344 1.351563 -3.539063 1.324219 -3.089844 Z M 1.324219 -3.089844 "/>
</symbol>
<symbol overflow="visible" id="glyph0-12">
<path style="stroke:none;" d="M 5.28125 -4.210938 L 0.554688 -4.210938 L 0.554688 -5.03125 L 5.28125 -5.03125 Z M 5.28125 -2.035156 L 0.554688 -2.035156 L 0.554688 -2.855469 L 5.28125 -2.855469 Z M 5.28125 -2.035156 "/>
</symbol>
<symbol overflow="visible" id="glyph0-13">
<path style="stroke:none;" d="M 0.421875 -1.890625 L 1.296875 -2.007813 C 1.394531 -1.503906 1.566406 -1.144531 1.8125 -0.929688 C 2.054688 -0.707031 2.351563 -0.597656 2.699219 -0.601563 C 3.109375 -0.597656 3.457031 -0.742188 3.746094 -1.03125 C 4.027344 -1.316406 4.171875 -1.667969 4.175781 -2.09375 C 4.171875 -2.492188 4.039063 -2.824219 3.777344 -3.089844 C 3.511719 -3.347656 3.175781 -3.480469 2.773438 -3.484375 C 2.601563 -3.480469 2.394531 -3.449219 2.152344 -3.390625 L 2.25 -4.160156 C 2.308594 -4.152344 2.355469 -4.148438 2.390625 -4.148438 C 2.765625 -4.148438 3.101563 -4.246094 3.402344 -4.441406 C 3.699219 -4.636719 3.847656 -4.9375 3.851563 -5.347656 C 3.847656 -5.664063 3.738281 -5.929688 3.523438 -6.144531 C 3.304688 -6.355469 3.023438 -6.460938 2.679688 -6.464844 C 2.335938 -6.460938 2.050781 -6.355469 1.824219 -6.140625 C 1.59375 -5.925781 1.449219 -5.601563 1.386719 -5.175781 L 0.507813 -5.332031 C 0.613281 -5.917969 0.855469 -6.371094 1.238281 -6.699219 C 1.617188 -7.019531 2.09375 -7.183594 2.660156 -7.1875 C 3.050781 -7.183594 3.410156 -7.097656 3.738281 -6.933594 C 4.066406 -6.761719 4.316406 -6.535156 4.496094 -6.25 C 4.667969 -5.957031 4.757813 -5.648438 4.757813 -5.328125 C 4.757813 -5.015625 4.671875 -4.734375 4.507813 -4.480469 C 4.335938 -4.226563 4.089844 -4.023438 3.769531 -3.875 C 4.191406 -3.773438 4.523438 -3.574219 4.757813 -3.269531 C 4.992188 -2.960938 5.109375 -2.574219 5.109375 -2.113281 C 5.109375 -1.484375 4.878906 -0.953125 4.425781 -0.523438 C 3.964844 -0.0898438 3.390625 0.121094 2.695313 0.125 C 2.066406 0.121094 1.542969 -0.0625 1.128906 -0.433594 C 0.710938 -0.808594 0.476563 -1.292969 0.421875 -1.890625 Z M 0.421875 -1.890625 "/>
</symbol>
<symbol overflow="visible" id="glyph0-14">
<path style="stroke:none;" d="M 0.742188 0 L 0.742188 -7.15625 L 2.167969 -7.15625 L 3.863281 -2.089844 C 4.015625 -1.617188 4.128906 -1.265625 4.203125 -1.03125 C 4.28125 -1.289063 4.410156 -1.671875 4.585938 -2.179688 L 6.296875 -7.15625 L 7.574219 -7.15625 L 7.574219 0 L 6.660156 0 L 6.660156 -5.992188 L 4.578125 0 L 3.726563 0 L 1.65625 -6.09375 L 1.65625 0 Z M 0.742188 0 "/>
</symbol>
<symbol overflow="visible" id="glyph0-15">
<path style="stroke:none;" d="M 0.660156 0 L 0.660156 -5.1875 L 1.449219 -5.1875 L 1.449219 -4.449219 C 1.828125 -5.015625 2.378906 -5.300781 3.101563 -5.304688 C 3.410156 -5.300781 3.699219 -5.246094 3.960938 -5.132813 C 4.222656 -5.019531 4.417969 -4.871094 4.550781 -4.691406 C 4.679688 -4.507813 4.769531 -4.292969 4.824219 -4.042969 C 4.855469 -3.878906 4.875 -3.59375 4.875 -3.1875 L 4.875 0 L 3.992188 0 L 3.992188 -3.15625 C 3.988281 -3.511719 3.957031 -3.777344 3.890625 -3.957031 C 3.820313 -4.128906 3.699219 -4.269531 3.527344 -4.378906 C 3.351563 -4.480469 3.144531 -4.535156 2.914063 -4.539063 C 2.535156 -4.535156 2.214844 -4.417969 1.945313 -4.183594 C 1.671875 -3.945313 1.535156 -3.492188 1.539063 -2.832031 L 1.539063 0 Z M 0.660156 0 "/>
</symbol>
<symbol overflow="visible" id="glyph0-16">
<path style="stroke:none;" d="M 0.820313 0 L 0.820313 -7.15625 L 5.648438 -7.15625 L 5.648438 -6.3125 L 1.765625 -6.3125 L 1.765625 -4.097656 L 5.125 -4.097656 L 5.125 -3.25 L 1.765625 -3.25 L 1.765625 0 Z M 0.820313 0 "/>
</symbol>
<symbol overflow="visible" id="glyph0-17">
<path style="stroke:none;" d="M 0.332031 -2.59375 C 0.328125 -3.550781 0.59375 -4.261719 1.132813 -4.726563 C 1.574219 -5.109375 2.121094 -5.300781 2.765625 -5.304688 C 3.476563 -5.300781 4.058594 -5.066406 4.511719 -4.601563 C 4.964844 -4.132813 5.191406 -3.488281 5.191406 -2.664063 C 5.191406 -1.996094 5.089844 -1.472656 4.890625 -1.089844 C 4.6875 -0.707031 4.394531 -0.410156 4.015625 -0.199219 C 3.628906 0.0117188 3.214844 0.117188 2.765625 0.117188 C 2.039063 0.117188 1.449219 -0.113281 1.003906 -0.582031 C 0.550781 -1.042969 0.328125 -1.714844 0.332031 -2.59375 Z M 1.234375 -2.59375 C 1.230469 -1.925781 1.375 -1.429688 1.667969 -1.101563 C 1.957031 -0.769531 2.324219 -0.601563 2.765625 -0.605469 C 3.199219 -0.601563 3.558594 -0.769531 3.851563 -1.101563 C 4.140625 -1.433594 4.289063 -1.9375 4.289063 -2.621094 C 4.289063 -3.261719 4.140625 -3.75 3.851563 -4.078125 C 3.554688 -4.40625 3.195313 -4.570313 2.765625 -4.574219 C 2.324219 -4.570313 1.957031 -4.40625 1.667969 -4.082031 C 1.375 -3.75 1.230469 -3.253906 1.234375 -2.59375 Z M 1.234375 -2.59375 "/>
</symbol>
<symbol overflow="visible" id="glyph0-18">
<path style="stroke:none;" d="M 1.617188 0 L 0.03125 -5.1875 L 0.9375 -5.1875 L 1.761719 -2.191406 L 2.070313 -1.078125 C 2.078125 -1.132813 2.167969 -1.488281 2.339844 -2.148438 L 3.164063 -5.1875 L 4.066406 -5.1875 L 4.84375 -2.179688 L 5.101563 -1.1875 L 6.289063 -5.1875 L 7.144531 -5.1875 L 5.523438 0 L 4.609375 0 L 3.785156 -3.105469 L 3.585938 -3.988281 L 2.535156 0 Z M 1.617188 0 "/>
</symbol>
<symbol overflow="visible" id="glyph0-19">
<path style="stroke:none;" d="M 0.316406 -2.148438 L 0.316406 -3.03125 L 3.015625 -3.03125 L 3.015625 -2.148438 Z M 0.316406 -2.148438 "/>
</symbol>
<symbol overflow="visible" id="glyph0-20">
<path style="stroke:none;" d="M 0.660156 1.988281 L 0.660156 -5.1875 L 1.460938 -5.1875 L 1.460938 -4.511719 C 1.644531 -4.773438 1.859375 -4.96875 2.097656 -5.105469 C 2.335938 -5.234375 2.625 -5.300781 2.964844 -5.304688 C 3.40625 -5.300781 3.796875 -5.1875 4.136719 -4.960938 C 4.472656 -4.730469 4.726563 -4.410156 4.902344 -3.996094 C 5.070313 -3.582031 5.15625 -3.125 5.160156 -2.632813 C 5.15625 -2.097656 5.0625 -1.621094 4.875 -1.199219 C 4.683594 -0.773438 4.40625 -0.449219 4.042969 -0.222656 C 3.679688 0.00390625 3.296875 0.117188 2.898438 0.117188 C 2.605469 0.117188 2.34375 0.0585938 2.109375 -0.0664063 C 1.875 -0.1875 1.683594 -0.347656 1.539063 -0.539063 L 1.539063 1.988281 Z M 1.453125 -2.5625 C 1.453125 -1.890625 1.585938 -1.398438 1.859375 -1.082031 C 2.125 -0.761719 2.453125 -0.601563 2.84375 -0.605469 C 3.230469 -0.601563 3.566406 -0.769531 3.84375 -1.101563 C 4.121094 -1.429688 4.257813 -1.941406 4.261719 -2.636719 C 4.257813 -3.296875 4.121094 -3.789063 3.851563 -4.121094 C 3.578125 -4.445313 3.257813 -4.609375 2.882813 -4.613281 C 2.507813 -4.609375 2.175781 -4.433594 1.886719 -4.085938 C 1.597656 -3.734375 1.453125 -3.226563 1.453125 -2.5625 Z M 1.453125 -2.5625 "/>
</symbol>
<symbol overflow="visible" id="glyph0-21">
<path style="stroke:none;" d="M 0.449219 -2.300781 L 1.34375 -2.378906 C 1.382813 -2.019531 1.480469 -1.722656 1.636719 -1.496094 C 1.789063 -1.261719 2.03125 -1.078125 2.359375 -0.9375 C 2.683594 -0.796875 3.050781 -0.726563 3.457031 -0.726563 C 3.816406 -0.726563 4.132813 -0.777344 4.414063 -0.886719 C 4.6875 -0.992188 4.894531 -1.140625 5.03125 -1.328125 C 5.164063 -1.511719 5.230469 -1.71875 5.234375 -1.945313 C 5.230469 -2.167969 5.167969 -2.363281 5.039063 -2.53125 C 4.90625 -2.695313 4.691406 -2.835938 4.394531 -2.953125 C 4.199219 -3.027344 3.773438 -3.140625 3.117188 -3.300781 C 2.460938 -3.457031 2 -3.609375 1.738281 -3.75 C 1.394531 -3.929688 1.140625 -4.148438 0.972656 -4.414063 C 0.804688 -4.675781 0.71875 -4.976563 0.722656 -5.308594 C 0.71875 -5.667969 0.820313 -6.003906 1.027344 -6.320313 C 1.230469 -6.632813 1.53125 -6.871094 1.925781 -7.035156 C 2.320313 -7.195313 2.757813 -7.277344 3.242188 -7.28125 C 3.769531 -7.277344 4.238281 -7.191406 4.644531 -7.023438 C 5.046875 -6.847656 5.359375 -6.597656 5.578125 -6.269531 C 5.796875 -5.9375 5.914063 -5.558594 5.933594 -5.140625 L 5.023438 -5.074219 C 4.972656 -5.523438 4.808594 -5.863281 4.527344 -6.097656 C 4.242188 -6.328125 3.828125 -6.445313 3.28125 -6.445313 C 2.707031 -6.445313 2.289063 -6.339844 2.027344 -6.128906 C 1.765625 -5.917969 1.632813 -5.664063 1.636719 -5.371094 C 1.632813 -5.109375 1.726563 -4.898438 1.914063 -4.734375 C 2.09375 -4.570313 2.570313 -4.398438 3.339844 -4.226563 C 4.109375 -4.046875 4.636719 -3.894531 4.925781 -3.769531 C 5.339844 -3.574219 5.648438 -3.332031 5.847656 -3.039063 C 6.046875 -2.742188 6.144531 -2.402344 6.148438 -2.023438 C 6.144531 -1.636719 6.035156 -1.277344 5.820313 -0.941406 C 5.597656 -0.601563 5.285156 -0.339844 4.878906 -0.15625 C 4.46875 0.0273438 4.007813 0.117188 3.5 0.121094 C 2.851563 0.117188 2.308594 0.0273438 1.871094 -0.160156 C 1.429688 -0.347656 1.085938 -0.632813 0.839844 -1.011719 C 0.589844 -1.390625 0.460938 -1.820313 0.449219 -2.300781 Z M 0.449219 -2.300781 "/>
</symbol>
<symbol overflow="visible" id="glyph0-22">
<path style="stroke:none;" d="M 2.578125 -0.785156 L 2.703125 -0.0078125 C 2.453125 0.046875 2.234375 0.0703125 2.039063 0.0703125 C 1.71875 0.0703125 1.46875 0.0195313 1.296875 -0.0820313 C 1.117188 -0.183594 0.996094 -0.316406 0.925781 -0.480469 C 0.855469 -0.644531 0.820313 -0.988281 0.820313 -1.519531 L 0.820313 -4.5 L 0.175781 -4.5 L 0.175781 -5.1875 L 0.820313 -5.1875 L 0.820313 -6.46875 L 1.695313 -6.996094 L 1.695313 -5.1875 L 2.578125 -5.1875 L 2.578125 -4.5 L 1.695313 -4.5 L 1.695313 -1.46875 C 1.691406 -1.214844 1.707031 -1.054688 1.742188 -0.984375 C 1.769531 -0.914063 1.820313 -0.855469 1.890625 -0.8125 C 1.957031 -0.769531 2.058594 -0.75 2.191406 -0.75 C 2.289063 -0.75 2.417969 -0.761719 2.578125 -0.785156 Z M 2.578125 -0.785156 "/>
</symbol>
<symbol overflow="visible" id="glyph0-23">
<path style="stroke:none;" d="M 4.023438 0 L 4.023438 -0.65625 C 3.691406 -0.140625 3.207031 0.117188 2.574219 0.117188 C 2.15625 0.117188 1.777344 0.00390625 1.433594 -0.222656 C 1.085938 -0.449219 0.816406 -0.765625 0.628906 -1.179688 C 0.433594 -1.585938 0.339844 -2.054688 0.34375 -2.585938 C 0.339844 -3.101563 0.425781 -3.574219 0.601563 -3.996094 C 0.769531 -4.417969 1.027344 -4.738281 1.375 -4.964844 C 1.71875 -5.1875 2.105469 -5.300781 2.535156 -5.304688 C 2.84375 -5.300781 3.121094 -5.234375 3.367188 -5.105469 C 3.609375 -4.96875 3.808594 -4.796875 3.964844 -4.589844 L 3.964844 -7.15625 L 4.839844 -7.15625 L 4.839844 0 Z M 1.246094 -2.585938 C 1.242188 -1.921875 1.382813 -1.425781 1.664063 -1.097656 C 1.945313 -0.765625 2.273438 -0.601563 2.65625 -0.605469 C 3.039063 -0.601563 3.367188 -0.757813 3.636719 -1.074219 C 3.902344 -1.386719 4.035156 -1.867188 4.039063 -2.515625 C 4.035156 -3.21875 3.898438 -3.738281 3.628906 -4.074219 C 3.351563 -4.402344 3.015625 -4.570313 2.617188 -4.574219 C 2.222656 -4.570313 1.894531 -4.410156 1.636719 -4.09375 C 1.371094 -3.773438 1.242188 -3.269531 1.246094 -2.585938 Z M 1.246094 -2.585938 "/>
</symbol>
<symbol overflow="visible" id="glyph0-24">
<path style="stroke:none;" d="M 0.621094 1.996094 L 0.523438 1.171875 C 0.710938 1.222656 0.878906 1.246094 1.023438 1.25 C 1.21875 1.246094 1.375 1.214844 1.496094 1.152344 C 1.609375 1.085938 1.707031 0.996094 1.78125 0.878906 C 1.835938 0.789063 1.925781 0.570313 2.050781 0.226563 C 2.066406 0.175781 2.089844 0.101563 2.128906 0.0078125 L 0.160156 -5.1875 L 1.109375 -5.1875 L 2.1875 -2.183594 C 2.324219 -1.796875 2.449219 -1.394531 2.5625 -0.980469 C 2.660156 -1.378906 2.78125 -1.773438 2.925781 -2.164063 L 4.03125 -5.1875 L 4.914063 -5.1875 L 2.9375 0.0859375 C 2.722656 0.652344 2.558594 1.046875 2.445313 1.265625 C 2.285156 1.554688 2.105469 1.765625 1.90625 1.902344 C 1.703125 2.035156 1.464844 2.101563 1.1875 2.105469 C 1.015625 2.101563 0.828125 2.066406 0.621094 1.996094 Z M 0.621094 1.996094 "/>
</symbol>
<symbol overflow="visible" id="glyph0-25">
<path style="stroke:none;" d="M 4.976563 -5.40625 L 4.101563 -5.335938 C 4.023438 -5.679688 3.910156 -5.929688 3.769531 -6.089844 C 3.527344 -6.335938 3.234375 -6.460938 2.890625 -6.464844 C 2.605469 -6.460938 2.359375 -6.382813 2.152344 -6.230469 C 1.871094 -6.027344 1.652344 -5.734375 1.496094 -5.347656 C 1.332031 -4.957031 1.25 -4.40625 1.25 -3.691406 C 1.457031 -4.011719 1.714844 -4.25 2.023438 -4.410156 C 2.328125 -4.5625 2.652344 -4.640625 2.988281 -4.644531 C 3.574219 -4.640625 4.070313 -4.425781 4.484375 -3.996094 C 4.890625 -3.566406 5.097656 -3.007813 5.101563 -2.324219 C 5.097656 -1.871094 5 -1.453125 4.8125 -1.070313 C 4.617188 -0.683594 4.351563 -0.386719 4.015625 -0.183594 C 3.671875 0.0195313 3.289063 0.117188 2.859375 0.121094 C 2.125 0.117188 1.527344 -0.148438 1.066406 -0.683594 C 0.605469 -1.21875 0.375 -2.109375 0.375 -3.351563 C 0.375 -4.734375 0.628906 -5.738281 1.140625 -6.367188 C 1.585938 -6.910156 2.1875 -7.183594 2.945313 -7.1875 C 3.503906 -7.183594 3.964844 -7.027344 4.328125 -6.714844 C 4.683594 -6.398438 4.898438 -5.960938 4.976563 -5.40625 Z M 1.386719 -2.320313 C 1.382813 -2.015625 1.445313 -1.722656 1.578125 -1.449219 C 1.703125 -1.167969 1.882813 -0.957031 2.117188 -0.816406 C 2.34375 -0.667969 2.589844 -0.597656 2.847656 -0.601563 C 3.214844 -0.597656 3.53125 -0.746094 3.800781 -1.050781 C 4.066406 -1.347656 4.199219 -1.753906 4.203125 -2.269531 C 4.199219 -2.761719 4.070313 -3.152344 3.808594 -3.4375 C 3.542969 -3.722656 3.210938 -3.867188 2.8125 -3.867188 C 2.414063 -3.867188 2.074219 -3.722656 1.800781 -3.4375 C 1.519531 -3.152344 1.382813 -2.78125 1.386719 -2.320313 Z M 1.386719 -2.320313 "/>
</symbol>
<symbol overflow="visible" id="glyph1-0">
<path style="stroke:none;" d="M 0.976563 0 L 0.976563 -4.875 L 4.875 -4.875 L 4.875 0 Z M 1.097656 -0.121094 L 4.753906 -0.121094 L 4.753906 -4.753906 L 1.097656 -4.753906 Z M 1.097656 -0.121094 "/>
</symbol>
<symbol overflow="visible" id="glyph1-1">
<path style="stroke:none;" d="M 0.324219 -2.753906 C 0.320313 -3.410156 0.390625 -3.941406 0.527344 -4.347656 C 0.660156 -4.75 0.859375 -5.058594 1.132813 -5.277344 C 1.398438 -5.492188 1.738281 -5.601563 2.144531 -5.605469 C 2.441406 -5.601563 2.703125 -5.542969 2.933594 -5.425781 C 3.15625 -5.304688 3.34375 -5.128906 3.492188 -4.902344 C 3.640625 -4.671875 3.753906 -4.394531 3.839844 -4.070313 C 3.917969 -3.742188 3.960938 -3.304688 3.964844 -2.753906 C 3.960938 -2.097656 3.894531 -1.566406 3.761719 -1.164063 C 3.628906 -0.761719 3.425781 -0.453125 3.160156 -0.234375 C 2.886719 -0.015625 2.550781 0.09375 2.144531 0.09375 C 1.605469 0.09375 1.179688 -0.0976563 0.875 -0.484375 C 0.503906 -0.945313 0.320313 -1.703125 0.324219 -2.753906 Z M 1.027344 -2.753906 C 1.023438 -1.835938 1.132813 -1.222656 1.347656 -0.921875 C 1.5625 -0.617188 1.828125 -0.46875 2.144531 -0.46875 C 2.457031 -0.46875 2.71875 -0.621094 2.9375 -0.925781 C 3.148438 -1.230469 3.257813 -1.839844 3.261719 -2.753906 C 3.257813 -3.671875 3.148438 -4.28125 2.9375 -4.585938 C 2.71875 -4.886719 2.453125 -5.039063 2.136719 -5.039063 C 1.820313 -5.039063 1.570313 -4.90625 1.382813 -4.640625 C 1.144531 -4.296875 1.023438 -3.667969 1.027344 -2.753906 Z M 1.027344 -2.753906 "/>
</symbol>
<symbol overflow="visible" id="glyph1-2">
<path style="stroke:none;" d="M 0.328125 -1.472656 L 1.011719 -1.566406 C 1.089844 -1.175781 1.222656 -0.898438 1.414063 -0.726563 C 1.601563 -0.554688 1.832031 -0.46875 2.105469 -0.46875 C 2.425781 -0.46875 2.699219 -0.578125 2.921875 -0.804688 C 3.144531 -1.023438 3.257813 -1.300781 3.257813 -1.632813 C 3.257813 -1.945313 3.152344 -2.203125 2.949219 -2.410156 C 2.738281 -2.613281 2.476563 -2.71875 2.164063 -2.71875 C 2.03125 -2.71875 1.871094 -2.691406 1.679688 -2.644531 L 1.753906 -3.246094 C 1.796875 -3.238281 1.835938 -3.234375 1.867188 -3.238281 C 2.15625 -3.234375 2.417969 -3.308594 2.652344 -3.464844 C 2.882813 -3.613281 3 -3.851563 3.003906 -4.171875 C 3 -4.421875 2.914063 -4.628906 2.75 -4.792969 C 2.578125 -4.957031 2.359375 -5.039063 2.089844 -5.042969 C 1.820313 -5.039063 1.597656 -4.953125 1.421875 -4.789063 C 1.242188 -4.617188 1.128906 -4.367188 1.082031 -4.039063 L 0.394531 -4.160156 C 0.476563 -4.617188 0.667969 -4.972656 0.96875 -5.226563 C 1.261719 -5.476563 1.632813 -5.601563 2.074219 -5.605469 C 2.378906 -5.601563 2.65625 -5.535156 2.914063 -5.410156 C 3.167969 -5.277344 3.367188 -5.101563 3.503906 -4.875 C 3.640625 -4.648438 3.707031 -4.40625 3.710938 -4.15625 C 3.707031 -3.910156 3.644531 -3.691406 3.515625 -3.496094 C 3.382813 -3.296875 3.191406 -3.140625 2.941406 -3.023438 C 3.269531 -2.945313 3.523438 -2.785156 3.707031 -2.550781 C 3.890625 -2.308594 3.984375 -2.007813 3.984375 -1.648438 C 3.984375 -1.15625 3.804688 -0.746094 3.449219 -0.410156 C 3.09375 -0.0742188 2.644531 0.09375 2.101563 0.0976563 C 1.609375 0.09375 1.203125 -0.0507813 0.878906 -0.339844 C 0.554688 -0.628906 0.371094 -1.003906 0.328125 -1.472656 Z M 0.328125 -1.472656 "/>
</symbol>
<symbol overflow="visible" id="glyph1-3">
<path style="stroke:none;" d="M 3.882813 -4.214844 L 3.199219 -4.164063 C 3.136719 -4.429688 3.050781 -4.625 2.941406 -4.75 C 2.753906 -4.941406 2.523438 -5.039063 2.253906 -5.042969 C 2.03125 -5.039063 1.839844 -4.976563 1.679688 -4.859375 C 1.460938 -4.699219 1.289063 -4.472656 1.167969 -4.171875 C 1.042969 -3.867188 0.980469 -3.433594 0.976563 -2.878906 C 1.136719 -3.128906 1.335938 -3.316406 1.578125 -3.4375 C 1.8125 -3.558594 2.066406 -3.621094 2.332031 -3.621094 C 2.785156 -3.621094 3.171875 -3.453125 3.496094 -3.117188 C 3.816406 -2.78125 3.976563 -2.34375 3.980469 -1.8125 C 3.976563 -1.460938 3.902344 -1.136719 3.753906 -0.835938 C 3.601563 -0.53125 3.394531 -0.300781 3.128906 -0.144531 C 2.863281 0.015625 2.5625 0.09375 2.230469 0.09375 C 1.65625 0.09375 1.191406 -0.113281 0.832031 -0.535156 C 0.472656 -0.949219 0.292969 -1.644531 0.292969 -2.613281 C 0.292969 -3.691406 0.492188 -4.472656 0.890625 -4.964844 C 1.238281 -5.386719 1.707031 -5.601563 2.296875 -5.605469 C 2.734375 -5.601563 3.09375 -5.476563 3.375 -5.234375 C 3.65625 -4.984375 3.824219 -4.644531 3.882813 -4.214844 Z M 1.082031 -1.808594 C 1.078125 -1.570313 1.128906 -1.34375 1.230469 -1.128906 C 1.332031 -0.914063 1.472656 -0.75 1.652344 -0.636719 C 1.832031 -0.523438 2.019531 -0.46875 2.21875 -0.46875 C 2.507813 -0.46875 2.757813 -0.582031 2.964844 -0.816406 C 3.171875 -1.046875 3.273438 -1.367188 3.277344 -1.769531 C 3.273438 -2.15625 3.171875 -2.460938 2.96875 -2.683594 C 2.761719 -2.902344 2.503906 -3.011719 2.195313 -3.015625 C 1.882813 -3.011719 1.621094 -2.902344 1.40625 -2.683594 C 1.1875 -2.460938 1.078125 -2.167969 1.082031 -1.808594 Z M 1.082031 -1.808594 "/>
</symbol>
<symbol overflow="visible" id="glyph2-0">
<path style="stroke:none;" d="M 1.101563 0 L 1.101563 -5.5 L 5.5 -5.5 L 5.5 0 Z M 1.238281 -0.136719 L 5.363281 -0.136719 L 5.363281 -5.363281 L 1.238281 -5.363281 Z M 1.238281 -0.136719 "/>
</symbol>
<symbol overflow="visible" id="glyph2-1">
<path style="stroke:none;" d="M 2.28125 0 L 2.28125 -5.554688 L 0.207031 -5.554688 L 0.207031 -6.300781 L 5.199219 -6.300781 L 5.199219 -5.554688 L 3.117188 -5.554688 L 3.117188 0 Z M 2.28125 0 "/>
</symbol>
<symbol overflow="visible" id="glyph2-2">
<path style="stroke:none;" d="M 0.585938 -5.410156 L 0.585938 -6.300781 L 1.359375 -6.300781 L 1.359375 -5.410156 Z M 0.585938 0 L 0.585938 -4.5625 L 1.359375 -4.5625 L 1.359375 0 Z M 0.585938 0 "/>
</symbol>
<symbol overflow="visible" id="glyph2-3">
<path style="stroke:none;" d="M 0.578125 0 L 0.578125 -4.5625 L 1.273438 -4.5625 L 1.273438 -3.921875 C 1.414063 -4.140625 1.605469 -4.320313 1.84375 -4.460938 C 2.078125 -4.59375 2.347656 -4.664063 2.65625 -4.667969 C 2.992188 -4.664063 3.269531 -4.59375 3.488281 -4.457031 C 3.699219 -4.3125 3.851563 -4.117188 3.945313 -3.867188 C 4.300781 -4.398438 4.773438 -4.664063 5.355469 -4.667969 C 5.804688 -4.664063 6.148438 -4.539063 6.394531 -4.289063 C 6.636719 -4.039063 6.761719 -3.652344 6.761719 -3.132813 L 6.761719 0 L 5.996094 0 L 5.996094 -2.875 C 5.992188 -3.183594 5.96875 -3.40625 5.917969 -3.542969 C 5.867188 -3.675781 5.773438 -3.785156 5.644531 -3.871094 C 5.511719 -3.953125 5.359375 -3.996094 5.183594 -3.996094 C 4.859375 -3.996094 4.59375 -3.886719 4.382813 -3.675781 C 4.171875 -3.457031 4.066406 -3.117188 4.066406 -2.652344 L 4.066406 0 L 3.292969 0 L 3.292969 -2.964844 C 3.292969 -3.308594 3.226563 -3.566406 3.101563 -3.738281 C 2.972656 -3.910156 2.769531 -3.996094 2.484375 -3.996094 C 2.265625 -3.996094 2.0625 -3.9375 1.878906 -3.824219 C 1.691406 -3.707031 1.558594 -3.539063 1.476563 -3.320313 C 1.390625 -3.097656 1.347656 -2.78125 1.351563 -2.367188 L 1.351563 0 Z M 0.578125 0 "/>
</symbol>
<symbol overflow="visible" id="glyph2-4">
<path style="stroke:none;" d="M 3.703125 -1.46875 L 4.503906 -1.371094 C 4.375 -0.902344 4.140625 -0.539063 3.800781 -0.285156 C 3.460938 -0.0273438 3.027344 0.0976563 2.496094 0.101563 C 1.828125 0.0976563 1.296875 -0.101563 0.90625 -0.511719 C 0.511719 -0.917969 0.316406 -1.496094 0.320313 -2.242188 C 0.316406 -3.007813 0.515625 -3.605469 0.914063 -4.03125 C 1.308594 -4.453125 1.820313 -4.664063 2.453125 -4.667969 C 3.058594 -4.664063 3.554688 -4.457031 3.945313 -4.042969 C 4.328125 -3.628906 4.523438 -3.042969 4.527344 -2.289063 C 4.523438 -2.242188 4.523438 -2.175781 4.523438 -2.085938 L 1.121094 -2.085938 C 1.144531 -1.582031 1.289063 -1.195313 1.546875 -0.929688 C 1.800781 -0.660156 2.117188 -0.527344 2.5 -0.53125 C 2.78125 -0.527344 3.023438 -0.601563 3.226563 -0.753906 C 3.425781 -0.902344 3.585938 -1.140625 3.703125 -1.46875 Z M 1.164063 -2.71875 L 3.710938 -2.71875 C 3.671875 -3.101563 3.578125 -3.386719 3.421875 -3.582031 C 3.171875 -3.878906 2.851563 -4.03125 2.460938 -4.03125 C 2.105469 -4.03125 1.804688 -3.910156 1.566406 -3.671875 C 1.320313 -3.433594 1.1875 -3.117188 1.164063 -2.71875 Z M 1.164063 -2.71875 "/>
</symbol>
<symbol overflow="visible" id="glyph2-5">
<path style="stroke:none;" d=""/>
</symbol>
<symbol overflow="visible" id="glyph2-6">
<path style="stroke:none;" d="M 0.578125 0 L 0.578125 -4.5625 L 1.277344 -4.5625 L 1.277344 -3.914063 C 1.609375 -4.414063 2.089844 -4.664063 2.726563 -4.667969 C 3 -4.664063 3.253906 -4.613281 3.484375 -4.519531 C 3.714844 -4.417969 3.886719 -4.289063 4.003906 -4.128906 C 4.113281 -3.96875 4.195313 -3.777344 4.246094 -3.558594 C 4.273438 -3.410156 4.289063 -3.160156 4.289063 -2.804688 L 4.289063 0 L 3.515625 0 L 3.515625 -2.777344 C 3.515625 -3.089844 3.484375 -3.324219 3.425781 -3.484375 C 3.363281 -3.636719 3.257813 -3.761719 3.105469 -3.855469 C 2.949219 -3.949219 2.769531 -3.996094 2.566406 -3.996094 C 2.234375 -3.996094 1.949219 -3.890625 1.710938 -3.679688 C 1.46875 -3.46875 1.347656 -3.070313 1.351563 -2.492188 L 1.351563 0 Z M 0.578125 0 "/>
</symbol>
<symbol overflow="visible" id="glyph2-7">
<path style="stroke:none;" d="M 0.546875 1.757813 L 0.460938 1.03125 C 0.628906 1.078125 0.777344 1.101563 0.902344 1.101563 C 1.074219 1.101563 1.210938 1.070313 1.3125 1.015625 C 1.414063 0.953125 1.5 0.875 1.570313 0.773438 C 1.617188 0.695313 1.695313 0.503906 1.804688 0.199219 C 1.820313 0.152344 1.84375 0.0859375 1.875 0.0078125 L 0.140625 -4.5625 L 0.976563 -4.5625 L 1.925781 -1.921875 C 2.046875 -1.585938 2.15625 -1.230469 2.257813 -0.863281 C 2.34375 -1.214844 2.449219 -1.5625 2.574219 -1.902344 L 3.550781 -4.5625 L 4.324219 -4.5625 L 2.585938 0.078125 C 2.398438 0.574219 2.253906 0.921875 2.152344 1.113281 C 2.011719 1.367188 1.855469 1.550781 1.679688 1.671875 C 1.5 1.789063 1.289063 1.851563 1.042969 1.851563 C 0.894531 1.851563 0.726563 1.820313 0.546875 1.757813 Z M 0.546875 1.757813 "/>
</symbol>
<symbol overflow="visible" id="glyph2-8">
<path style="stroke:none;" d="M 3.558594 -0.5625 C 3.269531 -0.320313 2.996094 -0.148438 2.730469 -0.046875 C 2.464844 0.0507813 2.179688 0.0976563 1.878906 0.101563 C 1.375 0.0976563 0.988281 -0.0195313 0.71875 -0.265625 C 0.449219 -0.507813 0.316406 -0.820313 0.316406 -1.203125 C 0.316406 -1.421875 0.367188 -1.628906 0.46875 -1.816406 C 0.570313 -2 0.703125 -2.148438 0.871094 -2.261719 C 1.03125 -2.371094 1.214844 -2.453125 1.425781 -2.515625 C 1.574219 -2.550781 1.804688 -2.589844 2.113281 -2.628906 C 2.734375 -2.703125 3.195313 -2.792969 3.492188 -2.894531 C 3.492188 -3 3.492188 -3.066406 3.496094 -3.097656 C 3.492188 -3.410156 3.417969 -3.632813 3.277344 -3.765625 C 3.074219 -3.9375 2.78125 -4.023438 2.398438 -4.027344 C 2.03125 -4.023438 1.761719 -3.960938 1.589844 -3.835938 C 1.414063 -3.707031 1.289063 -3.480469 1.207031 -3.160156 L 0.453125 -3.261719 C 0.515625 -3.582031 0.628906 -3.84375 0.789063 -4.042969 C 0.945313 -4.242188 1.171875 -4.394531 1.472656 -4.503906 C 1.769531 -4.609375 2.117188 -4.664063 2.507813 -4.667969 C 2.898438 -4.664063 3.214844 -4.617188 3.457031 -4.527344 C 3.699219 -4.433594 3.878906 -4.320313 3.996094 -4.183594 C 4.109375 -4.042969 4.1875 -3.867188 4.238281 -3.65625 C 4.257813 -3.523438 4.269531 -3.285156 4.273438 -2.945313 L 4.273438 -1.914063 C 4.269531 -1.191406 4.289063 -0.734375 4.324219 -0.546875 C 4.355469 -0.351563 4.417969 -0.171875 4.519531 0 L 3.710938 0 C 3.628906 -0.160156 3.578125 -0.347656 3.558594 -0.5625 Z M 3.492188 -2.289063 C 3.210938 -2.171875 2.789063 -2.074219 2.230469 -2 C 1.910156 -1.949219 1.683594 -1.898438 1.554688 -1.84375 C 1.421875 -1.785156 1.320313 -1.699219 1.25 -1.589844 C 1.175781 -1.476563 1.140625 -1.355469 1.144531 -1.226563 C 1.140625 -1.015625 1.21875 -0.84375 1.378906 -0.707031 C 1.53125 -0.570313 1.761719 -0.503906 2.0625 -0.503906 C 2.359375 -0.503906 2.621094 -0.566406 2.855469 -0.699219 C 3.085938 -0.824219 3.257813 -1.003906 3.367188 -1.234375 C 3.449219 -1.40625 3.492188 -1.664063 3.492188 -2.007813 Z M 3.492188 -2.289063 "/>
</symbol>
<symbol overflow="visible" id="glyph2-9">
<path style="stroke:none;" d="M 0.570313 0 L 0.570313 -4.5625 L 1.265625 -4.5625 L 1.265625 -3.871094 C 1.445313 -4.191406 1.609375 -4.40625 1.757813 -4.511719 C 1.90625 -4.613281 2.070313 -4.664063 2.257813 -4.667969 C 2.515625 -4.664063 2.78125 -4.582031 3.050781 -4.417969 L 2.785156 -3.699219 C 2.589844 -3.808594 2.402344 -3.867188 2.21875 -3.867188 C 2.046875 -3.867188 1.894531 -3.816406 1.761719 -3.714844 C 1.625 -3.613281 1.527344 -3.472656 1.472656 -3.292969 C 1.382813 -3.015625 1.339844 -2.714844 1.34375 -2.390625 L 1.34375 0 Z M 0.570313 0 "/>
</symbol>
<symbol overflow="visible" id="glyph2-10">
<path style="stroke:none;" d="M 0.269531 -1.363281 L 1.035156 -1.484375 C 1.078125 -1.171875 1.199219 -0.9375 1.394531 -0.777344 C 1.589844 -0.609375 1.863281 -0.527344 2.21875 -0.53125 C 2.570313 -0.527344 2.832031 -0.601563 3.007813 -0.75 C 3.175781 -0.894531 3.261719 -1.0625 3.265625 -1.257813 C 3.261719 -1.429688 3.1875 -1.566406 3.039063 -1.671875 C 2.929688 -1.734375 2.664063 -1.824219 2.246094 -1.933594 C 1.675781 -2.074219 1.285156 -2.195313 1.066406 -2.304688 C 0.847656 -2.40625 0.679688 -2.550781 0.566406 -2.738281 C 0.453125 -2.917969 0.398438 -3.125 0.398438 -3.351563 C 0.398438 -3.554688 0.445313 -3.742188 0.539063 -3.914063 C 0.632813 -4.085938 0.757813 -4.230469 0.917969 -4.347656 C 1.039063 -4.433594 1.203125 -4.507813 1.410156 -4.574219 C 1.617188 -4.632813 1.839844 -4.664063 2.078125 -4.667969 C 2.433594 -4.664063 2.75 -4.613281 3.023438 -4.511719 C 3.292969 -4.40625 3.492188 -4.265625 3.621094 -4.089844 C 3.75 -3.914063 3.839844 -3.679688 3.890625 -3.386719 L 3.132813 -3.28125 C 3.097656 -3.515625 2.996094 -3.699219 2.832031 -3.832031 C 2.664063 -3.964844 2.433594 -4.03125 2.136719 -4.03125 C 1.777344 -4.03125 1.523438 -3.972656 1.375 -3.855469 C 1.222656 -3.738281 1.148438 -3.597656 1.148438 -3.441406 C 1.148438 -3.339844 1.179688 -3.25 1.242188 -3.171875 C 1.304688 -3.085938 1.402344 -3.019531 1.539063 -2.964844 C 1.613281 -2.933594 1.839844 -2.867188 2.222656 -2.765625 C 2.765625 -2.617188 3.148438 -2.496094 3.367188 -2.40625 C 3.582031 -2.3125 3.75 -2.175781 3.875 -2 C 3.996094 -1.820313 4.058594 -1.601563 4.0625 -1.339844 C 4.058594 -1.078125 3.984375 -0.835938 3.835938 -0.609375 C 3.683594 -0.382813 3.464844 -0.207031 3.183594 -0.0820313 C 2.894531 0.0390625 2.574219 0.0976563 2.222656 0.101563 C 1.625 0.0976563 1.171875 -0.0195313 0.863281 -0.265625 C 0.550781 -0.507813 0.355469 -0.875 0.269531 -1.363281 Z M 0.269531 -1.363281 "/>
</symbol>
<symbol overflow="visible" id="glyph3-0">
<path style="stroke:none;" d="M 0 -1.101563 L -5.5 -1.101563 L -5.5 -5.5 L 0 -5.5 Z M -0.136719 -1.238281 L -0.136719 -5.363281 L -5.363281 -5.363281 L -5.363281 -1.238281 Z M -0.136719 -1.238281 "/>
</symbol>
<symbol overflow="visible" id="glyph3-1">
<path style="stroke:none;" d="M 0 -0.671875 L -6.300781 -0.671875 L -6.300781 -1.527344 L -1.351563 -4.835938 L -6.300781 -4.835938 L -6.300781 -5.632813 L 0 -5.632813 L 0 -4.777344 L -4.949219 -1.46875 L 0 -1.46875 Z M 0 -0.671875 "/>
</symbol>
<symbol overflow="visible" id="glyph3-2">
<path style="stroke:none;" d="M 0 -3.570313 L -0.671875 -3.570313 C -0.15625 -3.210938 0.0976563 -2.730469 0.101563 -2.121094 C 0.0976563 -1.851563 0.0507813 -1.597656 -0.0507813 -1.367188 C -0.152344 -1.132813 -0.28125 -0.960938 -0.441406 -0.847656 C -0.59375 -0.734375 -0.785156 -0.65625 -1.015625 -0.609375 C -1.164063 -0.578125 -1.40625 -0.5625 -1.734375 -0.5625 L -4.5625 -0.5625 L -4.5625 -1.335938 L -2.03125 -1.335938 C -1.625 -1.335938 -1.351563 -1.351563 -1.214844 -1.382813 C -1.007813 -1.429688 -0.847656 -1.53125 -0.734375 -1.691406 C -0.617188 -1.847656 -0.5625 -2.042969 -0.5625 -2.277344 C -0.5625 -2.507813 -0.621094 -2.726563 -0.738281 -2.929688 C -0.855469 -3.132813 -1.015625 -3.273438 -1.226563 -3.359375 C -1.429688 -3.441406 -1.726563 -3.484375 -2.117188 -3.488281 L -4.5625 -3.488281 L -4.5625 -4.261719 L 0 -4.261719 Z M 0 -3.570313 "/>
</symbol>
<symbol overflow="visible" id="glyph3-3">
<path style="stroke:none;" d="M 0 -0.578125 L -4.5625 -0.582031 L -4.5625 -1.273438 L -3.921875 -1.273438 C -4.140625 -1.414063 -4.320313 -1.605469 -4.460938 -1.84375 C -4.59375 -2.078125 -4.664063 -2.347656 -4.667969 -2.65625 C -4.664063 -2.992188 -4.59375 -3.269531 -4.457031 -3.488281 C -4.3125 -3.699219 -4.117188 -3.851563 -3.867188 -3.945313 C -4.398438 -4.300781 -4.664063 -4.773438 -4.667969 -5.355469 C -4.664063 -5.804688 -4.539063 -6.148438 -4.289063 -6.394531 C -4.039063 -6.636719 -3.652344 -6.761719 -3.132813 -6.761719 L 0 -6.761719 L 0 -5.996094 L -2.875 -5.996094 C -3.183594 -5.992188 -3.40625 -5.96875 -3.542969 -5.917969 C -3.675781 -5.867188 -3.785156 -5.773438 -3.871094 -5.644531 C -3.953125 -5.511719 -3.996094 -5.359375 -3.996094 -5.183594 C -3.996094 -4.859375 -3.886719 -4.59375 -3.675781 -4.382813 C -3.457031 -4.171875 -3.117188 -4.066406 -2.652344 -4.066406 L 0 -4.066406 L 0 -3.292969 L -2.964844 -3.292969 C -3.308594 -3.292969 -3.566406 -3.226563 -3.738281 -3.101563 C -3.910156 -2.972656 -3.996094 -2.769531 -3.996094 -2.484375 C -3.996094 -2.265625 -3.9375 -2.0625 -3.824219 -1.878906 C -3.707031 -1.691406 -3.539063 -1.558594 -3.320313 -1.476563 C -3.097656 -1.394531 -2.78125 -1.351563 -2.367188 -1.355469 L 0 -1.351563 Z M 0 -0.578125 "/>
</symbol>
<symbol overflow="visible" id="glyph3-4">
<path style="stroke:none;" d="M 0 -1.292969 L 0 -0.574219 L -6.300781 -0.574219 L -6.300781 -1.347656 L -4.050781 -1.347656 C -4.457031 -1.675781 -4.664063 -2.09375 -4.667969 -2.601563 C -4.664063 -2.878906 -4.605469 -3.140625 -4.496094 -3.394531 C -4.378906 -3.644531 -4.222656 -3.851563 -4.019531 -4.015625 C -3.8125 -4.171875 -3.5625 -4.300781 -3.277344 -4.394531 C -2.984375 -4.484375 -2.675781 -4.527344 -2.351563 -4.53125 C -1.5625 -4.527344 -0.957031 -4.335938 -0.535156 -3.953125 C -0.109375 -3.566406 0.0976563 -3.101563 0.101563 -2.5625 C 0.0976563 -2.019531 -0.121094 -1.597656 -0.570313 -1.292969 Z M -2.316406 -1.285156 C -1.765625 -1.28125 -1.371094 -1.355469 -1.128906 -1.507813 C -0.726563 -1.75 -0.527344 -2.082031 -0.53125 -2.496094 C -0.527344 -2.832031 -0.675781 -3.121094 -0.972656 -3.371094 C -1.265625 -3.613281 -1.703125 -3.738281 -2.285156 -3.742188 C -2.878906 -3.738281 -3.316406 -3.621094 -3.605469 -3.386719 C -3.886719 -3.152344 -4.03125 -2.867188 -4.03125 -2.53125 C -4.03125 -2.191406 -3.882813 -1.898438 -3.589844 -1.652344 C -3.292969 -1.40625 -2.867188 -1.28125 -2.316406 -1.285156 Z M -2.316406 -1.285156 "/>
</symbol>
<symbol overflow="visible" id="glyph3-5">
<path style="stroke:none;" d="M -1.46875 -3.703125 L -1.371094 -4.503906 C -0.902344 -4.375 -0.539063 -4.140625 -0.285156 -3.800781 C -0.0273438 -3.460938 0.0976563 -3.027344 0.101563 -2.496094 C 0.0976563 -1.828125 -0.101563 -1.296875 -0.511719 -0.910156 C -0.917969 -0.515625 -1.496094 -0.320313 -2.242188 -0.324219 C -3.007813 -0.320313 -3.605469 -0.519531 -4.03125 -0.914063 C -4.453125 -1.308594 -4.664063 -1.820313 -4.667969 -2.453125 C -4.664063 -3.058594 -4.457031 -3.554688 -4.042969 -3.945313 C -3.628906 -4.328125 -3.042969 -4.523438 -2.289063 -4.527344 C -2.242188 -4.523438 -2.171875 -4.523438 -2.082031 -4.523438 L -2.085938 -1.121094 C -1.582031 -1.144531 -1.195313 -1.289063 -0.929688 -1.546875 C -0.660156 -1.800781 -0.527344 -2.117188 -0.53125 -2.5 C -0.527344 -2.78125 -0.601563 -3.023438 -0.753906 -3.226563 C -0.902344 -3.425781 -1.140625 -3.585938 -1.46875 -3.703125 Z M -2.71875 -1.164063 L -2.71875 -3.710938 C -3.101563 -3.671875 -3.386719 -3.578125 -3.582031 -3.421875 C -3.878906 -3.171875 -4.03125 -2.851563 -4.03125 -2.460938 C -4.03125 -2.105469 -3.910156 -1.804688 -3.671875 -1.566406 C -3.433594 -1.320313 -3.117188 -1.1875 -2.71875 -1.164063 Z M -2.71875 -1.164063 "/>
</symbol>
<symbol overflow="visible" id="glyph3-6">
<path style="stroke:none;" d="M 0 -0.570313 L -4.5625 -0.570313 L -4.5625 -1.269531 L -3.871094 -1.269531 C -4.191406 -1.445313 -4.40625 -1.609375 -4.511719 -1.757813 C -4.613281 -1.90625 -4.664063 -2.070313 -4.667969 -2.257813 C -4.664063 -2.515625 -4.582031 -2.78125 -4.417969 -3.050781 L -3.699219 -2.785156 C -3.808594 -2.589844 -3.867188 -2.402344 -3.867188 -2.21875 C -3.867188 -2.046875 -3.816406 -1.894531 -3.714844 -1.761719 C -3.613281 -1.625 -3.472656 -1.527344 -3.292969 -1.472656 C -3.015625 -1.382813 -2.714844 -1.339844 -2.390625 -1.34375 L 0 -1.34375 Z M 0 -0.570313 "/>
</symbol>
<symbol overflow="visible" id="glyph3-7">
<path style="stroke:none;" d=""/>
</symbol>
<symbol overflow="visible" id="glyph3-8">
<path style="stroke:none;" d="M -2.28125 -0.292969 C -3.125 -0.292969 -3.753906 -0.527344 -4.160156 -0.996094 C -4.496094 -1.386719 -4.664063 -1.863281 -4.667969 -2.433594 C -4.664063 -3.058594 -4.457031 -3.570313 -4.050781 -3.96875 C -3.636719 -4.363281 -3.070313 -4.5625 -2.347656 -4.566406 C -1.757813 -4.5625 -1.296875 -4.476563 -0.960938 -4.300781 C -0.625 -4.125 -0.363281 -3.867188 -0.175781 -3.535156 C 0.0078125 -3.195313 0.0976563 -2.828125 0.101563 -2.433594 C 0.0976563 -1.789063 -0.101563 -1.273438 -0.511719 -0.882813 C -0.917969 -0.488281 -1.507813 -0.292969 -2.28125 -0.292969 Z M -2.28125 -1.085938 C -1.695313 -1.082031 -1.257813 -1.210938 -0.96875 -1.46875 C -0.671875 -1.722656 -0.527344 -2.042969 -0.53125 -2.433594 C -0.527344 -2.8125 -0.671875 -3.132813 -0.96875 -3.390625 C -1.257813 -3.644531 -1.707031 -3.773438 -2.308594 -3.773438 C -2.871094 -3.773438 -3.296875 -3.644531 -3.589844 -3.386719 C -3.878906 -3.128906 -4.023438 -2.808594 -4.027344 -2.433594 C -4.023438 -2.042969 -3.878906 -1.722656 -3.59375 -1.46875 C -3.300781 -1.210938 -2.863281 -1.082031 -2.28125 -1.085938 Z M -2.28125 -1.085938 "/>
</symbol>
<symbol overflow="visible" id="glyph3-9">
<path style="stroke:none;" d="M 0 -0.765625 L -3.960938 -0.765625 L -3.960938 -0.0820313 L -4.5625 -0.0820313 L -4.5625 -0.765625 L -5.046875 -0.765625 C -5.351563 -0.761719 -5.582031 -0.789063 -5.730469 -0.847656 C -5.929688 -0.917969 -6.089844 -1.046875 -6.21875 -1.238281 C -6.339844 -1.421875 -6.402344 -1.6875 -6.40625 -2.027344 C -6.402344 -2.246094 -6.378906 -2.484375 -6.328125 -2.75 L -5.65625 -2.632813 C -5.679688 -2.46875 -5.695313 -2.320313 -5.699219 -2.179688 C -5.695313 -1.945313 -5.644531 -1.777344 -5.546875 -1.679688 C -5.445313 -1.582031 -5.257813 -1.535156 -4.984375 -1.535156 L -4.5625 -1.535156 L -4.5625 -2.421875 L -3.960938 -2.421875 L -3.960938 -1.535156 L 0 -1.535156 Z M 0 -0.765625 "/>
</symbol>
<symbol overflow="visible" id="glyph3-10">
<path style="stroke:none;" d="M 1.75 -0.578125 L -4.5625 -0.582031 L -4.5625 -1.285156 L -3.96875 -1.285156 C -4.199219 -1.449219 -4.375 -1.636719 -4.492188 -1.847656 C -4.605469 -2.050781 -4.664063 -2.304688 -4.667969 -2.609375 C -4.664063 -2.992188 -4.5625 -3.335938 -4.367188 -3.636719 C -4.164063 -3.933594 -3.882813 -4.160156 -3.515625 -4.3125 C -3.148438 -4.464844 -2.746094 -4.539063 -2.316406 -4.542969 C -1.847656 -4.539063 -1.429688 -4.457031 -1.054688 -4.289063 C -0.679688 -4.121094 -0.390625 -3.875 -0.195313 -3.558594 C 0.00390625 -3.238281 0.0976563 -2.902344 0.101563 -2.550781 C 0.0976563 -2.289063 0.046875 -2.058594 -0.0585938 -1.855469 C -0.167969 -1.648438 -0.304688 -1.480469 -0.472656 -1.351563 L 1.75 -1.351563 Z M -2.257813 -1.28125 C -1.664063 -1.277344 -1.230469 -1.394531 -0.953125 -1.636719 C -0.667969 -1.871094 -0.527344 -2.160156 -0.53125 -2.5 C -0.527344 -2.839844 -0.671875 -3.132813 -0.96875 -3.382813 C -1.257813 -3.625 -1.710938 -3.75 -2.320313 -3.75 C -2.898438 -3.75 -3.332031 -3.628906 -3.625 -3.390625 C -3.914063 -3.152344 -4.058594 -2.867188 -4.0625 -2.535156 C -4.058594 -2.203125 -3.90625 -1.910156 -3.597656 -1.660156 C -3.289063 -1.402344 -2.839844 -1.277344 -2.257813 -1.28125 Z M -2.257813 -1.28125 "/>
</symbol>
<symbol overflow="visible" id="glyph3-11">
<path style="stroke:none;" d="M -0.5625 -3.558594 C -0.320313 -3.269531 -0.148438 -2.996094 -0.046875 -2.730469 C 0.0507813 -2.464844 0.0976563 -2.179688 0.101563 -1.878906 C 0.0976563 -1.375 -0.0195313 -0.988281 -0.265625 -0.71875 C -0.507813 -0.449219 -0.820313 -0.316406 -1.203125 -0.316406 C -1.421875 -0.316406 -1.628906 -0.367188 -1.816406 -0.46875 C -2 -0.570313 -2.148438 -0.703125 -2.261719 -0.871094 C -2.371094 -1.03125 -2.453125 -1.214844 -2.515625 -1.425781 C -2.550781 -1.574219 -2.589844 -1.804688 -2.628906 -2.113281 C -2.703125 -2.734375 -2.792969 -3.195313 -2.894531 -3.492188 C -3 -3.492188 -3.066406 -3.492188 -3.097656 -3.496094 C -3.410156 -3.492188 -3.632813 -3.417969 -3.765625 -3.277344 C -3.9375 -3.074219 -4.023438 -2.78125 -4.027344 -2.398438 C -4.023438 -2.03125 -3.960938 -1.761719 -3.835938 -1.589844 C -3.707031 -1.414063 -3.480469 -1.289063 -3.160156 -1.207031 L -3.261719 -0.453125 C -3.582031 -0.515625 -3.84375 -0.628906 -4.042969 -0.789063 C -4.242188 -0.945313 -4.394531 -1.171875 -4.503906 -1.472656 C -4.609375 -1.769531 -4.664063 -2.117188 -4.667969 -2.507813 C -4.664063 -2.898438 -4.617188 -3.214844 -4.527344 -3.457031 C -4.433594 -3.699219 -4.320313 -3.878906 -4.183594 -3.996094 C -4.042969 -4.109375 -3.867188 -4.1875 -3.65625 -4.238281 C -3.523438 -4.257813 -3.285156 -4.269531 -2.945313 -4.273438 L -1.914063 -4.273438 C -1.191406 -4.269531 -0.734375 -4.289063 -0.546875 -4.324219 C -0.351563 -4.355469 -0.171875 -4.417969 0 -4.519531 L 0 -3.710938 C -0.160156 -3.628906 -0.347656 -3.578125 -0.5625 -3.558594 Z M -2.289063 -3.492188 C -2.171875 -3.210938 -2.074219 -2.789063 -2 -2.230469 C -1.949219 -1.910156 -1.898438 -1.683594 -1.84375 -1.554688 C -1.785156 -1.421875 -1.699219 -1.320313 -1.589844 -1.25 C -1.476563 -1.175781 -1.355469 -1.140625 -1.226563 -1.144531 C -1.015625 -1.140625 -0.84375 -1.21875 -0.707031 -1.378906 C -0.570313 -1.53125 -0.503906 -1.761719 -0.503906 -2.0625 C -0.503906 -2.359375 -0.566406 -2.621094 -0.699219 -2.855469 C -0.824219 -3.085938 -1.003906 -3.257813 -1.234375 -3.367188 C -1.40625 -3.449219 -1.664063 -3.492188 -2.007813 -3.492188 Z M -2.289063 -3.492188 "/>
</symbol>
<symbol overflow="visible" id="glyph3-12">
<path style="stroke:none;" d="M -0.691406 -2.269531 L -0.0078125 -2.378906 C 0.0390625 -2.160156 0.0585938 -1.964844 0.0585938 -1.796875 C 0.0585938 -1.511719 0.015625 -1.292969 -0.0742188 -1.140625 C -0.160156 -0.984375 -0.277344 -0.875 -0.421875 -0.816406 C -0.566406 -0.75 -0.871094 -0.71875 -1.335938 -0.722656 L -3.960938 -0.722656 L -3.960938 -0.15625 L -4.5625 -0.15625 L -4.5625 -0.722656 L -5.695313 -0.722656 L -6.15625 -1.492188 L -4.5625 -1.492188 L -4.5625 -2.269531 L -3.960938 -2.269531 L -3.960938 -1.492188 L -1.292969 -1.492188 C -1.070313 -1.488281 -0.929688 -1.5 -0.867188 -1.53125 C -0.804688 -1.554688 -0.753906 -1.601563 -0.714844 -1.664063 C -0.675781 -1.726563 -0.65625 -1.8125 -0.660156 -1.929688 C -0.65625 -2.011719 -0.667969 -2.125 -0.691406 -2.269531 Z M -0.691406 -2.269531 "/>
</symbol>
<symbol overflow="visible" id="glyph3-13">
<path style="stroke:none;" d="M -5.410156 -0.585938 L -6.300781 -0.585938 L -6.300781 -1.359375 L -5.410156 -1.359375 Z M 0 -0.585938 L -4.5625 -0.585938 L -4.5625 -1.359375 L 0 -1.359375 Z M 0 -0.585938 "/>
</symbol>
<symbol overflow="visible" id="glyph3-14">
<path style="stroke:none;" d="M 0 -0.578125 L -4.5625 -0.582031 L -4.5625 -1.277344 L -3.914063 -1.277344 C -4.414063 -1.609375 -4.664063 -2.09375 -4.667969 -2.730469 C -4.664063 -3.003906 -4.613281 -3.253906 -4.519531 -3.484375 C -4.417969 -3.714844 -4.289063 -3.886719 -4.128906 -4.003906 C -3.96875 -4.113281 -3.777344 -4.195313 -3.558594 -4.246094 C -3.410156 -4.273438 -3.160156 -4.289063 -2.804688 -4.289063 L 0 -4.289063 L 0 -3.515625 L -2.777344 -3.515625 C -3.089844 -3.515625 -3.324219 -3.484375 -3.484375 -3.425781 C -3.636719 -3.363281 -3.761719 -3.257813 -3.855469 -3.105469 C -3.949219 -2.949219 -3.996094 -2.769531 -3.996094 -2.566406 C -3.996094 -2.234375 -3.890625 -1.949219 -3.679688 -1.710938 C -3.46875 -1.472656 -3.070313 -1.351563 -2.492188 -1.355469 L 0 -1.351563 Z M 0 -0.578125 "/>
</symbol>
<symbol overflow="visible" id="glyph3-15">
<path style="stroke:none;" d="M -1.363281 -0.269531 L -1.484375 -1.035156 C -1.171875 -1.078125 -0.9375 -1.199219 -0.777344 -1.394531 C -0.609375 -1.589844 -0.527344 -1.863281 -0.53125 -2.21875 C -0.527344 -2.570313 -0.597656 -2.832031 -0.746094 -3.007813 C -0.886719 -3.175781 -1.058594 -3.261719 -1.257813 -3.265625 C -1.429688 -3.261719 -1.566406 -3.1875 -1.671875 -3.039063 C -1.734375 -2.929688 -1.824219 -2.664063 -1.933594 -2.246094 C -2.074219 -1.675781 -2.195313 -1.285156 -2.304688 -1.066406 C -2.40625 -0.847656 -2.550781 -0.679688 -2.738281 -0.566406 C -2.917969 -0.453125 -3.125 -0.398438 -3.351563 -0.398438 C -3.554688 -0.398438 -3.742188 -0.445313 -3.914063 -0.539063 C -4.085938 -0.632813 -4.230469 -0.757813 -4.347656 -0.917969 C -4.433594 -1.039063 -4.507813 -1.203125 -4.574219 -1.410156 C -4.632813 -1.617188 -4.664063 -1.839844 -4.667969 -2.078125 C -4.664063 -2.433594 -4.613281 -2.75 -4.511719 -3.023438 C -4.40625 -3.292969 -4.265625 -3.492188 -4.089844 -3.621094 C -3.914063 -3.75 -3.679688 -3.839844 -3.386719 -3.890625 L -3.28125 -3.132813 C -3.515625 -3.097656 -3.699219 -2.996094 -3.832031 -2.832031 C -3.964844 -2.664063 -4.03125 -2.433594 -4.03125 -2.136719 C -4.03125 -1.777344 -3.972656 -1.523438 -3.855469 -1.375 C -3.738281 -1.222656 -3.597656 -1.148438 -3.441406 -1.148438 C -3.339844 -1.148438 -3.25 -1.179688 -3.171875 -1.242188 C -3.085938 -1.304688 -3.019531 -1.402344 -2.964844 -1.539063 C -2.933594 -1.613281 -2.867188 -1.839844 -2.765625 -2.222656 C -2.617188 -2.765625 -2.496094 -3.148438 -2.40625 -3.367188 C -2.3125 -3.582031 -2.175781 -3.75 -2 -3.875 C -1.820313 -3.996094 -1.601563 -4.058594 -1.339844 -4.0625 C -1.078125 -4.058594 -0.835938 -3.984375 -0.609375 -3.835938 C -0.382813 -3.683594 -0.207031 -3.464844 -0.0820313 -3.183594 C 0.0390625 -2.894531 0.0976563 -2.574219 0.101563 -2.222656 C 0.0976563 -1.625 -0.0195313 -1.171875 -0.265625 -0.863281 C -0.507813 -0.550781 -0.875 -0.355469 -1.363281 -0.269531 Z M -1.363281 -0.269531 "/>
</symbol>
</g>
<clipPath id="clip1">
  <path d="M 38.039063 17.933594 L 482.082031 17.933594 L 482.082031 310.253906 L 38.039063 310.253906 Z M 38.039063 17.933594 "/>
</clipPath>
</defs>
<g id="surface14">
<rect x="0" y="0" width="504" height="360" style="fill:rgb(100%,100%,100%);fill-opacity:1;stroke:none;"/>
<rect x="0" y="0" width="504" height="360" style="fill:rgb(100%,100%,100%);fill-opacity:1;stroke:none;"/>
<g clip-path="url(#clip1)" clip-rule="nonzero">
<path style=" stroke:none;fill-rule:nonzero;fill:rgb(100%,100%,100%);fill-opacity:1;" d="M 38.039063 310.253906 L 482.082031 310.253906 L 482.082031 17.933594 L 38.039063 17.933594 Z M 38.039063 310.253906 "/>
</g>
<path style="fill:none;stroke-width:0.96998;stroke-linecap:butt;stroke-linejoin:round;stroke:rgb(17.254902%,24.313725%,31.372549%);stroke-opacity:1;stroke-miterlimit:10;" d="M 58.222656 284.832031 L 260.0625 30.640625 "/>
<path style="fill:none;stroke-width:0.96998;stroke-linecap:butt;stroke-linejoin:round;stroke:rgb(17.254902%,24.313725%,31.372549%);stroke-opacity:1;stroke-miterlimit:10;" d="M 260.0625 30.640625 L 461.898438 30.640625 "/>
<g style="fill:rgb(17.254902%,24.313725%,31.372549%);fill-opacity:1;">
  <use xlink:href="#glyph0-1" x="121.488281" y="288.414063"/>
  <use xlink:href="#glyph0-2" x="128.158203" y="288.414063"/>
  <use xlink:href="#glyph0-2" x="133.158203" y="288.414063"/>
  <use xlink:href="#glyph0-3" x="138.158203" y="288.414063"/>
  <use xlink:href="#glyph0-4" x="141.488281" y="288.414063"/>
  <use xlink:href="#glyph0-5" x="147.049805" y="288.414063"/>
  <use xlink:href="#glyph0-6" x="152.611328" y="288.414063"/>
  <use xlink:href="#glyph0-7" x="154.833008" y="288.414063"/>
  <use xlink:href="#glyph0-8" x="157.611328" y="288.414063"/>
  <use xlink:href="#glyph0-9" x="163.719727" y="288.414063"/>
  <use xlink:href="#glyph0-10" x="165.941406" y="288.414063"/>
  <use xlink:href="#glyph0-11" x="174.271484" y="288.414063"/>
  <use xlink:href="#glyph0-7" x="179.833008" y="288.414063"/>
  <use xlink:href="#glyph0-12" x="182.611328" y="288.414063"/>
  <use xlink:href="#glyph0-7" x="188.451172" y="288.414063"/>
  <use xlink:href="#glyph0-13" x="191.229492" y="288.414063"/>
</g>
<g style="fill:rgb(17.254902%,24.313725%,31.372549%);fill-opacity:1;">
  <use xlink:href="#glyph0-14" x="296.660156" y="288.414063"/>
  <use xlink:href="#glyph0-9" x="304.990234" y="288.414063"/>
  <use xlink:href="#glyph0-15" x="307.211914" y="288.414063"/>
  <use xlink:href="#glyph0-9" x="312.773438" y="288.414063"/>
  <use xlink:href="#glyph0-10" x="314.995117" y="288.414063"/>
  <use xlink:href="#glyph0-4" x="323.325195" y="288.414063"/>
  <use xlink:href="#glyph0-10" x="328.886719" y="288.414063"/>
  <use xlink:href="#glyph0-7" x="337.216797" y="288.414063"/>
  <use xlink:href="#glyph0-16" x="339.995117" y="288.414063"/>
  <use xlink:href="#glyph0-17" x="346.103516" y="288.414063"/>
  <use xlink:href="#glyph0-6" x="351.665039" y="288.414063"/>
  <use xlink:href="#glyph0-6" x="353.886719" y="288.414063"/>
  <use xlink:href="#glyph0-17" x="356.108398" y="288.414063"/>
  <use xlink:href="#glyph0-18" x="361.669922" y="288.414063"/>
  <use xlink:href="#glyph0-19" x="368.891602" y="288.414063"/>
  <use xlink:href="#glyph0-4" x="372.22168" y="288.414063"/>
  <use xlink:href="#glyph0-20" x="377.783203" y="288.414063"/>
  <use xlink:href="#glyph0-7" x="383.344727" y="288.414063"/>
  <use xlink:href="#glyph0-8" x="386.123047" y="288.414063"/>
  <use xlink:href="#glyph0-9" x="392.231445" y="288.414063"/>
  <use xlink:href="#glyph0-10" x="394.453125" y="288.414063"/>
  <use xlink:href="#glyph0-11" x="402.783203" y="288.414063"/>
  <use xlink:href="#glyph0-7" x="408.344727" y="288.414063"/>
  <use xlink:href="#glyph0-12" x="411.123047" y="288.414063"/>
  <use xlink:href="#glyph0-7" x="416.962891" y="288.414063"/>
  <use xlink:href="#glyph0-13" x="419.741211" y="288.414063"/>
</g>
<path style="fill:none;stroke-width:0.96998;stroke-linecap:butt;stroke-linejoin:round;stroke:rgb(17.254902%,24.313725%,31.372549%);stroke-opacity:1;stroke-dasharray:3.879921,3.879921;stroke-miterlimit:10;" d="M 260.0625 284.832031 L 260.0625 30.640625 "/>
<g style="fill:rgb(17.254902%,24.313725%,31.372549%);fill-opacity:1;">
  <use xlink:href="#glyph0-21" x="219.339844" y="301.121094"/>
  <use xlink:href="#glyph0-22" x="226.009766" y="301.121094"/>
  <use xlink:href="#glyph0-4" x="228.788086" y="301.121094"/>
  <use xlink:href="#glyph0-23" x="234.349609" y="301.121094"/>
  <use xlink:href="#glyph0-24" x="239.911133" y="301.121094"/>
  <use xlink:href="#glyph0-7" x="244.911133" y="301.121094"/>
  <use xlink:href="#glyph0-23" x="247.689453" y="301.121094"/>
  <use xlink:href="#glyph0-4" x="253.250977" y="301.121094"/>
  <use xlink:href="#glyph0-3" x="258.8125" y="301.121094"/>
  <use xlink:href="#glyph0-5" x="262.142578" y="301.121094"/>
  <use xlink:href="#glyph0-22" x="267.704102" y="301.121094"/>
  <use xlink:href="#glyph0-9" x="270.482422" y="301.121094"/>
  <use xlink:href="#glyph0-17" x="272.704102" y="301.121094"/>
  <use xlink:href="#glyph0-15" x="278.265625" y="301.121094"/>
  <use xlink:href="#glyph0-7" x="283.827148" y="301.121094"/>
  <use xlink:href="#glyph0-12" x="286.605469" y="301.121094"/>
  <use xlink:href="#glyph0-7" x="292.445313" y="301.121094"/>
  <use xlink:href="#glyph0-25" x="295.223633" y="301.121094"/>
</g>
<path style="fill-rule:nonzero;fill:rgb(17.254902%,24.313725%,31.372549%);fill-opacity:1;stroke-width:0.644238;stroke-linecap:round;stroke-linejoin:round;stroke:rgb(17.254902%,24.313725%,31.372549%);stroke-opacity:1;stroke-miterlimit:10;" d="M 463.675781 30.640625 C 463.675781 33.011719 460.121094 33.011719 460.121094 30.640625 C 460.121094 28.273438 463.675781 28.273438 463.675781 30.640625 "/>
<g style="fill:rgb(17.254902%,24.313725%,31.372549%);fill-opacity:0.8;">
  <use xlink:href="#glyph1-1" x="56.054688" y="320.320313"/>
</g>
<g style="fill:rgb(17.254902%,24.313725%,31.372549%);fill-opacity:0.8;">
  <use xlink:href="#glyph1-2" x="257.894531" y="320.320313"/>
</g>
<g style="fill:rgb(17.254902%,24.313725%,31.372549%);fill-opacity:0.8;">
  <use xlink:href="#glyph1-3" x="459.730469" y="320.320313"/>
</g>
<g style="fill:rgb(17.254902%,24.313725%,31.372549%);fill-opacity:1;">
  <use xlink:href="#glyph2-1" x="233.65625" y="336.230469"/>
  <use xlink:href="#glyph2-2" x="239.031641" y="336.230469"/>
  <use xlink:href="#glyph2-3" x="240.986719" y="336.230469"/>
  <use xlink:href="#glyph2-4" x="248.317187" y="336.230469"/>
  <use xlink:href="#glyph2-5" x="253.211328" y="336.230469"/>
  <use xlink:href="#glyph2-2" x="255.65625" y="336.230469"/>
  <use xlink:href="#glyph2-6" x="257.611328" y="336.230469"/>
  <use xlink:href="#glyph2-5" x="262.505469" y="336.230469"/>
  <use xlink:href="#glyph2-7" x="264.950391" y="336.230469"/>
  <use xlink:href="#glyph2-4" x="269.350391" y="336.230469"/>
  <use xlink:href="#glyph2-8" x="274.244531" y="336.230469"/>
  <use xlink:href="#glyph2-9" x="279.138672" y="336.230469"/>
  <use xlink:href="#glyph2-10" x="282.069141" y="336.230469"/>
</g>
<g style="fill:rgb(17.254902%,24.313725%,31.372549%);fill-opacity:1;">
  <use xlink:href="#glyph3-1" x="28.21875" y="201.269531"/>
  <use xlink:href="#glyph3-2" x="28.21875" y="194.914453"/>
  <use xlink:href="#glyph3-3" x="28.21875" y="190.020312"/>
  <use xlink:href="#glyph3-4" x="28.21875" y="182.689844"/>
  <use xlink:href="#glyph3-5" x="28.21875" y="177.795703"/>
  <use xlink:href="#glyph3-6" x="28.21875" y="172.901562"/>
  <use xlink:href="#glyph3-7" x="28.21875" y="169.971094"/>
  <use xlink:href="#glyph3-8" x="28.21875" y="167.526172"/>
  <use xlink:href="#glyph3-9" x="28.21875" y="162.632031"/>
  <use xlink:href="#glyph3-7" x="28.21875" y="160.187109"/>
  <use xlink:href="#glyph3-10" x="28.21875" y="157.742187"/>
  <use xlink:href="#glyph3-11" x="28.21875" y="152.848047"/>
  <use xlink:href="#glyph3-12" x="28.21875" y="147.953906"/>
  <use xlink:href="#glyph3-13" x="28.21875" y="145.508984"/>
  <use xlink:href="#glyph3-5" x="28.21875" y="143.553906"/>
  <use xlink:href="#glyph3-14" x="28.21875" y="138.659766"/>
  <use xlink:href="#glyph3-12" x="28.21875" y="133.765625"/>
  <use xlink:href="#glyph3-15" x="28.21875" y="131.320703"/>
</g>
</g>
</svg>
